<?xml version="1.0" standalone="no"?>
<!DOCTYPE svg PUBLIC "-//W3C//DTD SVG 20010904//EN"
 "http://www.w3.org/TR/2001/REC-SVG-20010904/DTD/svg10.dtd">
<svg version="1.0" xmlns="http://www.w3.org/2000/svg"
 width="100.000000pt" height="100.000000pt" viewBox="0 0 100.000000 100.000000"
 preserveAspectRatio="xMidYMid meet">
<metadata>
Created by potrace 1.11, written by Peter Selinger 2001-2013
</metadata>
<g transform="translate(0.000000,100.000000) scale(0.100000,-0.100000)"
fill="#000000" stroke="none">
<path d="M535 860 c-44 -10 -91 -36 -113 -65 -14 -17 -30 -25 -53 -26 -30 -1
-31 -2 -9 -8 14 -3 25 -12 24 -18 -1 -7 -2 -18 -3 -24 0 -6 -14 -8 -33 -5 -43
7 -109 -23 -136 -62 -12 -16 -22 -35 -22 -41 0 -6 -17 -19 -38 -30 -41 -21
-62 -55 -62 -102 0 -58 43 -108 93 -109 15 0 27 -5 27 -10 0 -18 -29 -68 -41
-72 -15 -5 -15 -56 0 -71 6 -6 39 -13 73 -15 35 -3 73 -11 84 -19 30 -19 99
-26 138 -13 18 6 48 22 66 35 30 22 36 23 54 11 50 -32 109 -25 154 17 15 14
33 21 52 19 34 -4 85 21 100 48 20 37 20 83 1 115 -11 19 -15 39 -11 50 4 11
6 34 6 50 -1 17 4 33 9 37 6 5 5 8 -3 8 -7 0 -10 5 -7 10 3 6 0 11 -7 11 -7 1
1 5 17 9 l30 8 -29 1 c-15 0 -41 11 -56 24 -15 12 -34 27 -43 32 -8 6 -17 22
-21 36 -5 23 -3 25 23 21 57 -8 92 36 56 72 -8 8 -15 19 -15 25 0 14 -39 34
-55 27 -7 -2 -19 2 -25 10 -14 16 -61 19 -76 4 -7 -7 -19 -7 -36 -1 -38 14
-80 18 -113 11z"/>
<path d="M918 553 c7 -3 16 -2 19 1 4 3 -2 6 -13 5 -11 0 -14 -3 -6 -6z"/>
</g>
</svg>
